<?xml version="1.0" encoding="iso-8859-1"?>
<!-- Uploaded to: SVG Repo, www.svgrepo.com, Generator: SVG Repo Mixer Tools -->
<svg height="800px" width="800px" version="1.1" id="Layer_1" xmlns="http://www.w3.org/2000/svg" xmlns:xlink="http://www.w3.org/1999/xlink" 
	 viewBox="0 0 506.991 506.991" xml:space="preserve">
<path style="fill:#33A5D2;" d="M322.039,74.591c-80.8-80.8-202.4-90.8-271.2-22.4c-68.4,68.4-58.4,190,22.4,271.2
	c3.6,3.6,7.2,6.8,10.8,10.4l0,0c0-4.4,0.4-8.4,1.2-12.8c0.4-2,0.8-3.6,1.2-5.2c-0.8-0.8-1.6-1.6-2.8-2.4c-56-56-75.6-132.4-56-193.6
	l0,0c6.8-20.8,18-39.6,33.6-55.6c16-16,35.2-27.2,56-34c0,0,0,0,0.4,0c60.4-19.2,135.6-0.4,190.8,54c0,0,0,0,0.4,0c0,0,0,0,0,0.4
	c0.4,0.4,1.2,1.2,1.6,1.6c34.8,34.8,56.8,78.8,62,124c0.4,0.4,0.4,1.2,0.4,2c0,1.2,0.4,2,0.4,3.2c4.4,47.2-10,90-40.4,120.4
	c-15.6,15.6-34.4,26.8-55.2,33.6h-0.4c-15.2,4.8-31.2,7.2-48.4,7.2c-6.4,0-12.8-0.4-19.2-1.2c-0.4,0-0.4,0-0.8,0h-0.4
	c-3.6,4.8-8,9.6-13.2,13.2c57.6,10,111.6-5.2,148.8-42.4l0,0C413.239,276.991,403.239,155.391,322.039,74.591z"/>
<g>
	<polygon style="fill:#CC0000;" points="145.239,236.991 147.639,242.191 149.239,240.991 	"/>
	<path style="fill:#CC0000;" d="M88.439,306.991l-1.6,1.6c0,0,0,0-0.4,0l0.4,0.4c0.4,0.4,0.8,0.8,1.2,1.2c0-0.4,0.4-0.8,0.4-1.2
		c0.4-1.6,1.2-2.8,1.6-4.4L88.439,306.991z"/>
</g>
<path style="fill:#CDEEF9;" d="M410.839,404.191c2-2,4-3.2,6.4-4.4l-60.8-60.8l-9.2,9.2l0,0l0,0l-8.4,8.4l60.8,60.8
	c1.2-2.4,2.4-4.4,4.4-6.4L410.839,404.191z"/>
<path style="fill:#CC0000;" d="M347.639,348.191h-0.4H347.639z"/>
<path style="fill:#2884A9;" d="M495.639,464.991l-57.6-57.6c-3.2-3.2-7.6-5.2-12-5.2c-1.6,0-2.8,0.4-4,0.4c-1.6,0.4-3.2,1.2-4.8,2
	c-1.2,0.8-2.4,1.6-3.2,2.4l-6.8,6.8c-1.2,1.2-2,2-2.4,3.2c-0.8,1.6-1.6,3.2-2,4.8c-1.2,5.6,0,12,4.4,16.4l57.6,57.6
	c3.2,3.2,7.6,5.2,12,5.2c4.8,0,8.8-1.6,12-5.2l6.8-6.8c3.2-3.2,5.2-7.6,5.2-12S498.839,468.191,495.639,464.991z"/>
<path style="fill:#F0C960;" d="M208.039,369.391c-8.4,3.6-17.2,5.2-26.4,5.2c-38.4,0-69.2-31.2-69.2-69.2c0-4.4,0.4-8.4,1.2-12.8
	c0.8-4.8,2.4-9.2,4-14c-0.8,0.4-1.6,1.2-2.8,2l-0.4,0.4c-0.4,0.4-0.4,0.4-0.8,0.4c-12,9.6-20.8,23.2-24,39.2c-0.8,4-1.2,8-1.2,12
	c0,1.6,0,3.2,0.4,5.2c2.4,33.6,30.8,60.4,65.2,60.4c13.2,0,25.2-4,35.6-10.4C196.839,382.991,203.239,376.991,208.039,369.391
	L208.039,369.391z"/>
<g>
	<path style="fill:#CC0000;" d="M208.039,369.391L208.039,369.391L208.039,369.391L208.039,369.391z"/>
	<path style="fill:#CC0000;" d="M114.839,280.591c-0.4,0.4-0.8,0.8-1.2,1.2c0.4,0,0.4-0.4,0.8-0.4L114.839,280.591z"/>
	<path style="fill:#CC0000;" d="M200.439,287.391L200.439,287.391C200.439,287.391,200.439,286.991,200.439,287.391
		C200.439,286.991,200.439,287.391,200.439,287.391z"/>
</g>
<path style="fill:#EFDC81;" d="M200.439,287.391L200.439,287.391C200.439,287.391,200.439,286.991,200.439,287.391
	c-10.4-10.8-24.8-17.6-40.4-19.2c-2,0-4-0.4-6-0.4c-10.8,0-21.2,2.8-30,7.6l0,0c-2.8,5.6-5.2,11.6-6.4,18c-0.8,4-1.2,8-1.2,12
	c0,36,29.2,65.2,65.2,65.2c8.4,0,16.8-1.6,24.8-4.8c2-0.8,3.6-1.6,5.6-2.4c0,0,0-0.4,0.4-0.4c4.8-8.8,7.2-19.2,7.2-29.6
	C219.239,315.391,212.039,298.991,200.439,287.391z"/>
<g>
	<path style="fill:#CC0000;" d="M123.639,274.991L123.639,274.991C123.639,275.391,123.639,274.991,123.639,274.991L123.639,274.991
		z"/>
	<path style="fill:#CC0000;" d="M211.639,363.391c0,0,0.4,0,0.4-0.4l-0.4-0.4C212.039,362.991,211.639,362.991,211.639,363.391z"/>
</g>
<path d="M154.039,404.591c-39.2,0-71.2-32-71.2-71.2c0-4.4,0.4-8.8,1.2-13.2c6.4-33.6,35.6-58,70-58c39.2,0,71.2,32,71.2,71.2
	S193.239,404.591,154.039,404.591z M154.039,269.791c-30.4,0-56.8,21.6-62.4,51.6c-0.8,4-1.2,7.6-1.2,11.6
	c0,34.8,28.4,63.2,63.2,63.2s63.2-28.4,63.2-63.2C217.239,298.191,188.839,269.791,154.039,269.791z"/>
<path d="M181.639,376.591c-39.2,0-71.2-32-71.2-71.2c0-4.4,0.4-8.8,1.2-13.2c1.2-7.2,3.6-14,7.2-20.4c1.2-2,3.6-2.8,5.6-1.6
	c2,1.2,2.8,3.6,1.6,5.6c-3.2,5.6-5.2,11.6-6.4,18c-0.8,4-1.2,7.6-1.2,11.6c0,34.8,28.4,63.2,63.2,63.2c10.4,0,20.8-2.8,30-7.6
	c2-1.2,4.4-0.4,5.6,1.6c1.2,2,0.4,4.4-1.6,5.6C205.239,373.791,193.639,376.591,181.639,376.591z"/>
<path d="M230.039,396.991c-12.4,0-25.2-1.2-38-3.6c-2-0.4-3.6-2.4-3.2-4.8c0.4-2,2.4-3.6,4.8-3.2c58,10.8,112.4-4,150-41.6
	c67.6-67.6,57.6-188-22.4-268c-38.8-38.8-88.4-62.8-139.2-66.8c-50.4-4-96.4,11.6-129.2,44.4c-67.6,67.6-57.6,188,22.4,268
	c4,4,8,8,12.4,11.6c1.6,1.6,2,4,0.4,5.6s-4,2-5.6,0.4c-4.4-4-8.8-8-12.8-12c-83.2-83.2-93.2-208.8-22.4-279.6
	c34.4-34.4,82.4-50.8,135.6-46.8c52.8,4.4,104,28.8,144,69.2c83.2,83.2,93.2,208.8,22.4,279.6
	C318.039,380.591,276.039,396.991,230.039,396.991z"/>
<path d="M476.839,506.991c-6,0-12-2.4-16.4-6.8l-57.6-57.6c-9.2-9.2-9.2-23.6,0-32.8l6.8-6.8c4.4-4.4,10-6.8,16.4-6.8
	s12,2.4,16.4,6.8l57.6,57.6l0,0c9.2,9.2,9.2,23.6,0,32.8l-6.8,6.8C488.839,504.991,482.839,506.991,476.839,506.991z
	 M426.039,404.191c-4,0-8,1.6-10.8,4.4l-6.8,6.8c-6,6-6,15.6,0,21.6l57.6,57.6c6,6,15.6,6,21.6,0l6.8-6.8c6-6,6-15.6,0-21.6
	l-57.6-57.6C433.639,405.791,430.039,404.191,426.039,404.191z"/>
<path d="M400.439,424.991c-1.2,0-2-0.4-2.8-1.2l-64.4-64.4c-1.6-1.6-1.6-4,0-5.6s4-1.6,5.6,0l64.4,64.4c1.6,1.6,1.6,4,0,5.6
	C402.439,424.591,401.639,424.991,400.439,424.991z"/>
<path d="M420.839,404.591c-1.2,0-2-0.4-2.8-1.2l-64.4-64.4c-1.6-1.6-1.6-4,0-5.6s4-1.6,5.6,0l64.4,64.4c1.6,1.6,1.6,4,0,5.6
	C423.239,404.191,422.039,404.591,420.839,404.591z"/>
<path d="M112.839,283.791c-1.2,0-2-0.4-2.8-1.2c-1.6-1.6-1.6-4,0-5.6l195.2-195.2c1.6-1.6,4-1.6,5.6,0s1.6,4,0,5.6l-195.2,195.2
	C115.239,283.391,114.039,283.791,112.839,283.791z"/>
<path d="M85.239,311.391c-1.2,0-2-0.4-2.8-1.2c-1.6-1.6-1.6-4,0-5.6l13.6-13.6c1.6-1.6,4-1.6,5.6,0s1.6,4,0,5.6l-13.6,13.6
	C87.239,310.991,86.439,311.391,85.239,311.391z"/>
<path d="M209.639,376.991c-1.2,0-2-0.4-2.8-1.2c-1.6-1.6-1.6-4,0-5.6l162.4-162.4c1.6-1.6,4-1.6,5.6,0s1.6,4,0,5.6l-162.4,162.4
	C211.639,376.591,210.439,376.991,209.639,376.991z"/>
<path d="M201.639,289.791c-1.2,0-2-0.4-2.8-1.2c-1.6-1.6-1.6-4,0-5.6l147.2-147.2c1.6-1.6,4-1.6,5.6,0s1.6,4,0,5.6l-147.2,147.2
	C203.639,289.391,202.839,289.791,201.639,289.791z"/>
<path d="M44.039,256.991c-1.2,0-2-0.4-2.8-1.2c-1.6-1.6-1.6-4,0-5.6l208-208c1.6-1.6,4-1.6,5.6,0s1.6,4,0,5.6l-208,208
	C46.039,256.591,45.239,256.991,44.039,256.991z"/>
<path d="M23.639,182.191c-1.2,0-2-0.4-2.8-1.2c-1.6-1.6-1.6-4,0-5.6l154-154c1.6-1.6,4-1.6,5.6,0s1.6,4,0,5.6l-154,154
	C25.639,181.791,24.839,182.191,23.639,182.191z"/>
<path d="M229.639,377.791c-6.8,0-13.6-0.4-20.4-1.2c-2-0.4-3.6-2.4-3.6-4.4s2.4-3.6,4.4-3.6c47.2,5.2,89.6-8.4,119.6-38.4
	c29.2-29.2,42.8-70,38.8-115.6s-25.6-90.4-60.8-125.2c-35.2-35.2-79.6-56.8-125.2-60.8c-45.6-4-86.4,9.6-115.6,38.8
	c-60.4,60.4-50.4,168.4,22,240.8c1.2,1.2,2.4,2.4,3.6,3.2c1.6,1.6,1.6,4,0,5.6s-4,1.6-5.6,0c-1.2-1.2-2.4-2.4-3.6-3.6
	c-75.6-75.6-85.6-188.8-22-252.4c30.8-30.8,74-45.2,122-41.2c47.6,4.4,94,26.8,130.4,63.2c36.4,36.4,58.8,82.8,63.2,130.4
	c4.4,48-10.4,91.2-41.2,122C307.639,363.391,270.839,377.791,229.639,377.791z"/>
<path d="M332.439,336.991c-1.2,0-2-0.4-2.8-1.2l-268.8-268.8c-1.6-1.6-1.6-4,0-5.6s4-1.6,5.6,0l268.8,268.8c1.6,1.6,1.6,4,0,5.6
	C334.439,336.591,333.239,336.991,332.439,336.991z"/>
<path d="M181.239,274.191c-1.2,0-2-0.4-2.8-1.2l-151.2-151.2c-1.6-1.6-1.6-4,0-5.6s4-1.6,5.6,0l151.2,151.2c1.6,1.6,1.6,4,0,5.6
	C183.239,273.791,182.439,274.191,181.239,274.191z"/>
<path d="M277.639,370.591c-1.2,0-2-0.4-2.8-1.2l-61.2-61.2c-1.6-1.6-1.6-4,0-5.6s4-1.6,5.6,0l61.2,61.2c1.6,1.6,1.6,4,0,5.6
	C279.639,370.191,278.439,370.591,277.639,370.591z"/>
<path d="M110.439,284.591c-1.2,0-2-0.4-2.8-1.2l-83.6-83.6c-1.6-1.6-1.6-4,0-5.6s4-1.6,5.6,0l83.6,83.6c1.6,1.6,1.6,4,0,5.6
	C112.439,284.191,111.239,284.591,110.439,284.591z"/>
<path d="M365.639,281.791c-1.2,0-2-0.4-2.8-1.2l-246.8-246.8c-1.6-1.6-1.6-4,0-5.6s4-1.6,5.6,0l246.8,246.8c1.6,1.6,1.6,4,0,5.6
	C367.639,281.391,366.839,281.791,365.639,281.791z"/>
<path d="M369.239,204.191c-1.2,0-2-0.4-2.8-1.2l-172.8-172.8c-1.6-1.6-1.6-4,0-5.6s4-1.6,5.6,0l172.8,172.8c1.6,1.6,1.6,4,0,5.6
	C371.639,203.791,370.439,204.191,369.239,204.191z"/>
</svg>